<svg width="73" height="80" viewBox="0 0 73 80" fill="none" xmlns="http://www.w3.org/2000/svg">
<path fill-rule="evenodd" clip-rule="evenodd" d="M15.1623 0C10.9971 0 7.91494 5.0154 8.05295 10.4545C8.18541 15.6799 8.01332 22.4477 6.77488 27.9668C5.53203 33.5014 3.43157 37.0086 0 37.4588V42.5412C3.43157 42.9924 5.53203 46.4979 6.77474 52.0332C8.01332 57.5523 8.18527 64.3201 8.05281 69.5455C7.9148 74.9838 10.9969 80 15.1629 80H57.8432C62.0085 80 65.09 74.9846 64.952 69.5455C64.8196 64.3201 64.9917 57.5523 66.2301 52.0332C67.473 46.4979 69.5683 42.991 73 42.5412V37.4588C69.5684 37.0076 67.4731 33.5021 66.2301 27.9668C64.9915 22.4485 64.8196 15.6799 64.952 10.4545C65.09 5.01618 62.0085 0 57.8432 0H15.1618H15.1623ZM49.4916 49.2452C49.4916 56.7346 45.4308 61.2767 38.6919 61.2767H27.2203C26.8922 61.2767 26.5774 61.0974 26.3454 60.7782C26.1134 60.4589 25.983 60.026 25.983 59.5746V20.4256C25.983 19.9742 26.1134 19.5413 26.3454 19.222C26.5774 18.9028 26.8922 18.7235 27.2203 18.7235H38.6266C44.2457 18.7235 47.9335 22.9108 47.9335 29.3396C47.9335 33.8519 45.4526 37.8915 42.2921 38.5991V38.8345C46.5945 39.4837 49.4916 43.5832 49.4916 49.2452ZM37.441 24.1192H30.9001V36.8293H36.4092C40.668 36.8293 43.0162 34.4701 43.0162 30.2532C43.0158 26.3013 40.9969 24.1192 37.441 24.1192ZM30.9001 41.8724V55.8792H37.6817C42.1159 55.8792 44.4646 53.4315 44.4646 48.8316C44.4646 44.2316 42.05 41.8716 37.3965 41.8716H30.9001V41.8724Z" fill="#7952B3"/>
</svg>
