<svg width="73" height="80" viewBox="0 0 73 80" fill="none" xmlns="http://www.w3.org/2000/svg">
<path d="M0 0H73V80H0V0Z" fill="#F0DB4F"/>
<path d="M67.0254 60.9201C66.491 57.2699 64.3191 54.2053 57.8865 51.346C55.6521 50.2205 53.1609 49.4145 52.4184 47.5589C52.1547 46.479 52.12 45.8707 52.2866 45.2167C52.7654 43.095 55.0761 42.4334 56.9081 43.0418C58.0877 43.4752 59.2049 44.4715 59.878 46.0608C63.0284 43.8251 63.0215 43.8403 65.2212 42.3042C64.4162 40.9354 63.986 40.3041 63.4586 39.7187C61.5642 37.3993 58.9829 36.2054 54.8541 36.2966C54.1393 36.3955 53.4177 36.5019 52.7029 36.6008C50.6421 37.1711 48.6782 38.3575 47.5263 39.9468C44.0706 44.2434 45.056 51.7642 49.2611 54.8594C53.4038 58.2662 59.4894 59.0419 60.2666 62.2282C61.023 66.1293 57.6506 67.3916 54.2989 66.943C51.8286 66.3803 50.4547 65.0038 48.9697 62.5019C46.2357 64.2358 46.2357 64.2358 43.4253 66.0076C44.0915 67.6046 44.7923 68.327 45.9096 69.7111C51.1972 75.5894 64.4301 75.3004 66.8034 66.4031C66.9005 66.0988 67.5389 64.0608 67.0254 60.9201ZM39.6851 36.768H32.8569C32.8569 43.2319 32.8292 49.6502 32.8292 56.114C32.8292 60.2281 33.0235 64 32.4129 65.1559C31.4136 67.4295 28.8253 67.1482 27.6457 66.7071C26.4452 66.0607 25.8346 65.1406 25.1268 63.8403C24.9325 63.4676 24.7867 63.1787 24.7381 63.1559C22.8854 64.3954 21.0395 65.6425 19.1868 66.8821C20.1097 68.9581 21.4698 70.7604 23.2115 71.9314C25.8137 73.6425 29.311 74.1672 32.968 73.247C35.3481 72.4866 37.4021 70.9125 38.4776 68.5171C40.032 65.3764 39.6989 61.5741 39.6851 57.3688C39.7198 50.5095 39.6851 43.6502 39.6851 36.768Z" fill="#323330"/>
</svg>
