<svg width="66" height="75" viewBox="0 0 66 75" fill="none" xmlns="http://www.w3.org/2000/svg">
<path d="M3.81061 51.5695C3.87296 51.7387 3.94344 51.8949 4.01933 52.0511C4.05457 52.1422 4.10337 52.2366 4.14674 52.3212C4.21722 52.4905 4.29312 52.6532 4.3663 52.8159L4.79188 53.6751C4.87049 53.8345 4.94639 53.9908 5.03585 54.147C5.18494 54.4529 5.36113 54.7523 5.51564 55.0582C5.58612 55.1851 5.65118 55.312 5.72979 55.439C6.02796 55.9955 6.29903 56.4576 6.58908 56.9067C6.79509 57.2419 7.0011 57.5706 7.22338 57.8993C7.29657 58.023 7.37789 58.1466 7.45379 58.2703L8.05285 59.1425C8.12604 59.2434 8.19923 59.3605 8.27784 59.4647C8.54349 59.8487 8.8254 60.2197 9.10732 60.5972C9.10732 60.6037 9.11545 60.6102 9.12087 60.62C9.47055 61.1472 9.84734 61.6158 10.2594 62.0324L10.2702 62.0454C10.4871 62.3123 10.7039 62.5759 10.9343 62.8363L11.2081 63.1519C11.509 63.4904 11.8099 63.8256 12.127 64.151C12.1325 64.151 12.1352 64.1575 12.1406 64.1608L12.2951 64.3235C12.5716 64.6132 12.8508 64.8995 13.1354 65.1664L13.4743 65.5081C13.7047 65.7294 13.9432 65.9377 14.179 66.1557L14.5477 66.4942C14.7998 66.722 15.0681 66.9433 15.3257 67.1646C15.4205 67.246 15.5154 67.3273 15.613 67.4022L15.6916 67.477L16.4533 68.0759L16.7786 68.3362C17.1771 68.6421 17.5728 68.9285 17.9686 69.2149C18.0824 69.2832 18.1963 69.3581 18.302 69.4362C18.5948 69.638 18.8984 69.843 19.1938 70.0285C19.3565 70.1391 19.5245 70.2335 19.6926 70.3344C19.8959 70.4711 20.1073 70.6045 20.3242 70.7412C20.3838 70.764 20.4326 70.7868 20.4814 70.8193L20.4923 70.8063C20.5817 70.8551 20.6657 70.9072 20.7525 70.9593C21.0778 71.1545 21.4166 71.34 21.769 71.5223C21.834 71.5548 21.9045 71.5874 21.975 71.6329C22.3653 71.838 22.7557 72.0332 23.1596 72.222C23.2517 72.2545 23.3493 72.3098 23.4442 72.3522C23.8101 72.5181 24.1869 72.6874 24.561 72.8468L24.6965 72.9054C25.1113 73.0746 25.5206 73.2374 25.9435 73.3903C26.0411 73.4229 26.1413 73.4652 26.2444 73.4977C26.6754 73.6539 27.0928 73.8394 27.5292 73.937C55.3762 80 63.4677 53.9354 63.4677 53.9354C56.6692 64.5123 44.6039 67.3013 33.1783 64.1966C32.7555 64.0794 32.3326 63.9167 31.9043 63.767C31.2998 63.5616 30.7004 63.3348 30.1071 63.0868L30.3646 63.1812L30.1966 63.1031C29.8279 62.9534 29.4728 62.7874 29.1123 62.6215C29.024 62.5765 28.9345 62.5353 28.8439 62.4978L28.8141 62.488C28.4156 62.296 28.028 62.1007 27.6431 61.8957C27.559 61.8632 27.4886 61.8176 27.4045 61.7786C26.9486 61.54 26.4967 61.2905 26.0492 61.0301L26.4233 61.2286C26.3257 61.1768 26.2298 61.1203 26.1359 61.0593C25.8811 60.9161 25.6263 60.7534 25.3769 60.6005C25.187 60.4924 24.9999 60.3774 24.8158 60.2555L24.87 60.288C24.5637 60.0928 24.2574 59.8812 23.9484 59.6827C23.8562 59.6046 23.7505 59.5395 23.6448 59.4679C23.1855 59.1474 22.7318 58.8154 22.284 58.4721L22.4548 58.5957C22.3401 58.5107 22.2279 58.4206 22.1187 58.3256L22.1349 58.3386C21.8436 58.1238 21.5579 57.8981 21.2784 57.6617C21.1862 57.5901 21.1022 57.512 21.0073 57.4339C20.7152 57.1946 20.4278 56.9472 20.1453 56.6919L20.2103 56.7472C20.0965 56.6366 19.9745 56.5324 19.8525 56.4251C19.614 56.2005 19.3727 55.9857 19.1342 55.7514L18.8143 55.4455C18.4734 55.1198 18.139 54.7845 17.8114 54.4399L17.8087 54.4366L16.868 53.4115L16.597 53.1056C16.3747 52.8354 16.147 52.5783 15.9193 52.3115L15.6564 51.986C15.3757 51.6524 15.1019 51.3105 14.835 50.9609L14.8188 50.9381L14.7727 50.8926C14.4857 50.5141 14.2028 50.1311 13.9242 49.7437C13.851 49.6429 13.7833 49.5355 13.7074 49.4281L13.092 48.5331C12.8147 48.1148 12.5436 47.6906 12.2788 47.2606L12.1704 47.0784C5.83279 36.7424 3.53954 22.4783 8.61126 10.7754L4.13318 17.5739C-1.62705 27.464 -0.914138 40.3255 3.49075 50.8275C3.59104 51.0846 3.70218 51.3254 3.81061 51.5695Z" fill="#1266A9"/>
<path d="M26.2417 41.5914L26.4857 41.8843C26.7947 42.2423 27.1118 42.5905 27.4344 42.9388L27.4751 42.9811C27.8004 43.326 28.1663 43.6873 28.5431 44.0387L28.6 44.0908C28.6922 44.1657 28.7708 44.2535 28.8602 44.3284C29.2397 44.6799 29.6219 45.0151 30.0204 45.3503L30.0611 45.3796C30.2291 45.526 30.4081 45.6594 30.5978 45.8026C30.6737 45.8612 30.7604 45.9393 30.8418 45.9979C31.1291 46.2192 31.411 46.4242 31.7011 46.6358C31.7471 46.6586 31.7878 46.6878 31.8312 46.7106C32.0751 46.8896 32.3408 47.0621 32.5956 47.2183C32.685 47.2834 32.7718 47.3322 32.8639 47.394C33.0456 47.5014 33.2245 47.6153 33.398 47.726L33.4847 47.7716C33.8506 47.9864 34.2247 48.1881 34.5907 48.3866C34.6828 48.429 34.7614 48.4647 34.84 48.5103C35.1409 48.6665 35.4472 48.8162 35.7481 48.9529C35.8837 49.0082 36.0111 49.0733 36.1385 49.1221C36.415 49.2458 36.705 49.3597 36.9788 49.4736L37.3583 49.6201C37.754 49.7665 38.1552 49.9585 38.5754 50.0366C60.0794 54.2869 65.0562 34.5098 65.0562 34.5098C60.5754 42.213 51.9039 45.884 42.6631 43.0169C42.2018 42.8772 41.7444 42.7198 41.2915 42.545L41.446 42.597C41.3159 42.5547 41.2021 42.5059 41.0774 42.4604C40.7955 42.3432 40.5054 42.2293 40.2316 42.1089L39.8413 41.9331C39.5377 41.7867 39.2287 41.65 38.9332 41.4938C38.841 41.445 38.757 41.4124 38.6865 41.3636C38.307 41.1586 37.9248 40.9568 37.5535 40.742L36.995 40.3938L36.6725 40.1985C36.4231 40.0423 36.1927 39.8796 35.9541 39.7136C35.8933 39.6793 35.8344 39.6402 35.7779 39.5965L35.7861 39.5997C35.4987 39.3849 35.2006 39.1767 34.9241 38.9586C34.8319 38.8968 34.7479 38.8219 34.6611 38.7568L34.0973 38.3175C33.707 37.992 33.3248 37.6438 32.9371 37.3054C32.8504 37.211 32.7664 37.1329 32.6823 37.0483C28.619 33.2308 25.4149 28.014 23.8942 22.1073C22.2922 15.9662 22.6446 9.07983 25.4122 3.492L22.0103 9.24581C17.8331 16.4088 18.069 25.9833 21.3218 33.5595C21.9154 34.9589 22.5172 36.1403 23.1813 37.2663C23.7994 38.3273 24.4825 39.5704 25.3065 40.4231C25.5993 40.8234 25.9137 41.2042 26.2417 41.5914Z" fill="#1266A9"/>
<path d="M37.0438 3.01684C34.5798 7.33545 34.3439 12.6987 36.0408 17.4599C37.8434 22.5173 41.5273 26.4877 45.821 28.3687C45.9972 28.4501 46.168 28.5184 46.3496 28.5965L46.5882 28.6844C46.8375 28.7788 47.0896 28.8894 47.3472 28.9578C59.2227 31.6947 62.4376 21.6744 63.3023 20.2001C60.4751 25.0492 55.7341 26.2143 49.9169 24.5253C49.4111 24.3772 48.9132 24.1924 48.426 23.972L48.5155 24.0078C47.9092 23.7559 47.3155 23.4625 46.7373 23.1291L46.8403 23.1844C45.7289 22.5336 44.7747 21.8306 43.8883 21.0235C38.6892 16.3046 35.4743 7.31918 38.8681 0L37.0438 3.01684Z" fill="#1266A9"/>
<path d="M6.60257 56.9262L6.59173 56.9067L6.57275 56.8774L6.60257 56.9262ZM17.8737 54.5049L17.9008 54.5277L17.9062 54.5375L17.8737 54.5049Z" fill="black"/>
<path d="M23.211 37.3216L23.1811 37.2695L23.1567 37.2305L23.211 37.3216Z" fill="black"/>
</svg>
