<svg width="73" height="64" viewBox="0 0 73 64" fill="none" xmlns="http://www.w3.org/2000/svg">
<path d="M73 32.0071C73 27.3562 66.9439 22.9485 57.659 20.2152C59.8017 11.1136 58.8494 3.87243 54.6533 1.55411C53.6861 1.01031 52.5552 0.752714 51.3202 0.752714V3.94399C52.0047 3.94399 52.5552 4.07278 53.0165 4.31606C55.0402 5.43229 55.9181 9.68255 55.2336 15.1492C55.0699 16.4944 54.8021 17.9112 54.4747 19.3565C51.5583 18.6696 48.374 18.1401 45.0261 17.7967C43.0173 15.1492 40.9342 12.745 38.8361 10.6414C43.6869 6.30524 48.2401 3.92968 51.3351 3.92968V0.738403C47.2432 0.738403 41.8865 3.54329 36.4702 8.40891C31.054 3.57191 25.6973 0.795646 21.6054 0.795646V3.98692C24.6855 3.98692 29.2536 6.34817 34.1044 10.6557C32.0212 12.7593 29.938 15.1492 27.959 17.7967C24.5962 18.1401 21.4119 18.6696 18.4955 19.3709C18.1533 17.9398 17.9003 16.5517 17.7218 15.2208C17.0224 9.75411 17.8854 5.50385 19.8942 4.37331C20.3406 4.11571 20.9209 4.00123 21.6054 4.00123V0.809957C20.3555 0.809957 19.2246 1.06755 18.2426 1.61135C14.0614 3.92968 13.1239 11.1565 15.2815 20.2295C6.02629 22.9771 0 27.3705 0 32.0071C0 36.6581 6.05605 41.0658 15.341 43.7991C13.1983 52.9007 14.1506 60.1419 18.3467 62.4602C19.3139 63.004 20.4448 63.2616 21.6947 63.2616C25.7866 63.2616 31.1433 60.4567 36.5595 55.5911C41.9757 60.4281 47.3324 63.2043 51.4244 63.2043C52.6743 63.2043 53.8051 62.9467 54.7872 62.4029C58.9684 60.0846 59.9058 52.8577 57.7483 43.7848C66.9737 41.0515 73 36.6438 73 32.0071ZM53.6266 22.462C53.076 24.308 52.3916 26.2113 51.6178 28.1147C51.0077 26.9698 50.3679 25.825 49.6686 24.6801C48.9841 23.5353 48.255 22.419 47.5259 21.3314C49.6388 21.6319 51.6773 22.004 53.6266 22.462ZM46.8117 37.7028C45.651 39.6347 44.4607 41.4665 43.2256 43.1694C41.0086 43.3555 38.7617 43.4557 36.5 43.4557C34.2532 43.4557 32.0063 43.3555 29.8041 43.1838C28.5691 41.4808 27.3638 39.6633 26.2032 37.7457C25.0724 35.871 24.0457 33.9677 23.1082 32.0501C24.0308 30.1325 25.0724 28.2148 26.1883 26.3401C27.349 24.4082 28.5393 22.5764 29.7744 20.8735C31.9914 20.6874 34.2383 20.5873 36.5 20.5873C38.7468 20.5873 40.9937 20.6874 43.1959 20.8592C44.4309 22.5621 45.6362 24.3796 46.7968 26.2972C47.9276 28.1719 48.9543 30.0752 49.8918 31.9928C48.9543 33.9105 47.9276 35.8281 46.8117 37.7028ZM51.6178 35.8424C52.4213 37.76 53.1058 39.6777 53.6712 41.538C51.722 41.996 49.6686 42.3824 47.5408 42.6829C48.2699 41.581 48.999 40.4504 49.6835 39.2913C50.3679 38.1464 51.0077 36.9872 51.6178 35.8424ZM36.5298 51.1119C35.1459 49.738 33.7621 48.2068 32.3932 46.5324C33.7324 46.5897 35.1013 46.6326 36.4851 46.6326C37.8838 46.6326 39.2676 46.604 40.6217 46.5324C39.2825 48.2068 37.8987 49.738 36.5298 51.1119ZM25.4592 42.6829C23.3463 42.3824 21.3078 42.0103 19.3585 41.5523C19.9091 39.7063 20.5936 37.803 21.3673 35.8996C21.9774 37.0445 22.6172 38.1893 23.3166 39.3342C24.0159 40.479 24.7301 41.5953 25.4592 42.6829ZM36.4554 12.9024C37.8392 14.2763 39.223 15.8075 40.5919 17.4818C39.2528 17.4246 37.8838 17.3817 36.5 17.3817C35.1013 17.3817 33.7175 17.4103 32.3634 17.4818C33.7026 15.8075 35.0864 14.2763 36.4554 12.9024ZM25.4444 21.3314C24.7153 22.4333 23.9861 23.5639 23.3017 24.723C22.6172 25.8679 21.9774 27.0127 21.3673 28.1576C20.5638 26.24 19.8793 24.3223 19.3139 22.462C21.2631 22.0183 23.3166 21.6319 25.4444 21.3314ZM11.9782 39.2483C6.71076 37.0874 3.3033 34.2539 3.3033 32.0071C3.3033 29.7604 6.71076 26.9126 11.9782 24.766C13.2578 24.2365 14.6565 23.7642 16.0999 23.3206C16.948 26.1255 18.064 29.0448 19.4478 32.0358C18.0789 35.0124 16.9778 37.9174 16.1445 40.708C14.6714 40.2644 13.2727 39.7778 11.9782 39.2483ZM19.9835 59.6982C17.9598 58.582 17.0819 54.3317 17.7664 48.8651C17.9301 47.5199 18.1979 46.1031 18.5253 44.6578C21.4417 45.3447 24.626 45.8742 27.9739 46.2176C29.9827 48.8651 32.0658 51.2693 34.1639 53.3729C29.3131 57.7091 24.7599 60.0846 21.6649 60.0846C20.9953 60.0703 20.4299 59.9415 19.9835 59.6982ZM55.2782 48.7935C55.9776 54.2602 55.1145 58.5105 53.1058 59.641C52.6594 59.8986 52.0791 60.0131 51.3946 60.0131C48.3145 60.0131 43.7464 57.6518 38.8956 53.3443C40.9788 51.2406 43.062 48.8508 45.041 46.2033C48.4038 45.8598 51.5881 45.3304 54.5045 44.6291C54.8467 46.0745 55.1146 47.4626 55.2782 48.7935ZM61.0069 39.2483C59.7273 39.7778 58.3286 40.2501 56.8852 40.6937C56.0371 37.8888 54.9211 34.9694 53.5373 31.9785C54.9062 29.0019 56.0073 26.0969 56.8406 23.3063C58.3137 23.7499 59.7124 24.2365 61.0218 24.766C66.2892 26.9269 69.6967 29.7604 69.6967 32.0071C69.6818 34.2539 66.2744 37.1017 61.0069 39.2483Z" fill="#61DAFB"/>
<path d="M36.4851 38.5471C40.2407 38.5471 43.2851 35.619 43.2851 32.0071C43.2851 28.3952 40.2407 25.4672 36.4851 25.4672C32.7295 25.4672 29.6851 28.3952 29.6851 32.0071C29.6851 35.619 32.7295 38.5471 36.4851 38.5471Z" fill="#61DAFB"/>
</svg>
