<svg width="73" height="80" viewBox="0 0 73 80" fill="none" xmlns="http://www.w3.org/2000/svg">
<path d="M62.8364 45.9082C60.2843 45.9292 58.0743 46.8249 56.2208 48.1584C55.5364 46.1792 54.852 44.4499 54.7381 43.1584C54.6098 41.6584 54.453 40.7415 54.6098 38.9501C54.7665 37.1582 55.4794 34.6165 55.4794 34.4082C55.465 34.2207 55.3224 33.304 53.854 33.2832C52.3856 33.2624 51.1165 33.6999 50.9739 34.2624C50.8313 34.8249 50.5462 36.1165 50.3608 37.4499C50.1042 39.4082 47.4237 46.3457 45.8981 49.9915C45.3991 48.5749 44.9714 47.3249 44.8857 46.3247C44.7575 44.8249 44.6005 43.908 44.7575 42.1165C44.9143 40.3247 45.6272 37.7832 45.6272 37.5749C45.613 37.3874 45.4704 36.4707 44.002 36.4499C42.5333 36.429 41.2645 36.8665 41.1219 37.429C40.9793 37.9915 40.8225 39.3249 40.5088 40.6165C40.2093 41.9082 36.6448 53.4915 35.7181 56.5124C35.2475 58.054 34.8342 59.2832 34.5347 60.1165C34.2352 60.9499 34.5204 60.179 34.4919 60.2624C34.2352 60.9707 34.0927 61.3665 34.0927 61.3665V61.3876C33.8931 61.9084 33.6792 62.4082 33.5792 62.4082C33.508 62.4082 33.3654 61.0124 33.6078 59.0959C34.1353 55.0749 35.4185 48.8042 35.4044 48.5751C35.4044 48.4709 35.6466 47.3665 34.5773 46.8042C33.5365 46.2417 33.1659 47.1792 33.0802 47.1792C32.9947 47.1792 32.9234 47.5126 32.9234 47.5126C32.9234 47.5126 34.0783 40.4503 30.7134 40.4503C28.6033 40.4503 25.6947 43.8045 24.2546 46.867C23.3421 47.5961 21.4031 49.1376 19.3499 50.7836C18.5658 51.4086 17.7531 52.0753 16.9831 52.6795L16.8265 52.429C12.7487 46.0749 5.20634 41.5749 5.52001 33.0332C5.63407 29.929 6.37548 21.7415 20.0061 11.8249C31.17 3.69987 40.1096 5.92904 41.6636 10.8874C43.8735 17.9707 36.8872 31.1374 25.2815 33.0332C20.8616 33.7624 18.5374 31.2624 17.953 30.3249C17.3399 29.3457 17.2543 29.304 17.0262 29.4915C16.6555 29.7832 16.8836 30.6582 17.0262 31.179C17.3684 32.4915 18.7942 34.8249 21.218 35.9915C23.3423 37.0124 28.5323 37.5749 34.8057 34.0332C41.8348 30.054 47.3241 19.0124 45.7129 9.78321C44.0733 0.387374 33.4084 -2.69596 23.3282 2.53321C17.3255 5.65821 10.8239 10.5332 6.14735 16.929C0.586804 24.5124 -0.297181 31.1374 0.0735225 33.8874C1.37113 43.6999 10.6243 50.0957 14.3313 54.8249C14.146 54.9705 13.9749 55.1163 13.8181 55.2415C11.9645 56.5747 4.90692 61.9707 3.13895 67.6788C1.14286 74.1372 3.45262 78.7832 4.99247 79.4082C9.75458 81.3457 14.6307 77.8665 17.2684 72.1374C19.8917 66.4082 19.5782 58.9707 18.3663 55.5749L18.3234 55.4499L19.7777 54.1999C20.7188 53.3874 21.6456 52.6374 22.4581 51.9913C22.002 53.8038 21.674 55.9497 21.503 59.0747C21.3034 62.7415 22.33 67.4913 23.6845 69.3663C24.2833 70.1786 24.9962 70.1997 25.4382 70.1997C27.0065 70.1997 27.7194 68.3036 28.5036 66.033C29.4731 63.2622 30.3286 60.0538 30.3286 60.0538C30.3286 60.0538 29.2593 68.7413 32.1821 68.7413C33.2515 68.7413 34.3208 66.7205 34.8056 65.6788V65.6997C34.8056 65.6997 34.8341 65.6372 34.8911 65.4913C34.9509 65.3621 35.008 65.2301 35.0622 65.0957V65.054C35.4899 63.9707 36.4452 61.4915 37.871 57.3874C39.7101 52.0957 41.4782 45.4707 41.4782 45.4707C41.4782 45.4707 41.6493 47.0957 42.1768 49.7624C42.4904 51.3459 43.1747 53.0749 43.7023 54.7624C43.2746 55.6374 43.0179 56.1376 43.0179 56.1376L43.0322 56.1584C42.6901 56.8251 42.305 57.5336 41.9059 58.2418C40.4516 60.7834 38.7122 63.6795 38.4841 64.5128C38.2132 65.4918 38.2702 66.2209 38.7977 66.8045C39.1827 67.2211 39.8671 67.3043 40.5942 67.2211C41.9059 67.0959 42.8184 66.617 43.2747 66.3251C43.9876 65.9501 44.8003 65.3876 45.5845 64.5543C47.0102 63.0128 47.88 60.8253 47.7944 57.9086C47.7517 56.3045 47.3952 54.7211 46.9532 53.2211C47.0815 52.9503 47.21 52.6792 47.3382 52.3878C49.5909 47.5751 51.3304 42.2836 51.3304 42.2836C51.3304 42.2836 51.5015 43.9086 52.029 46.5753C52.2998 47.9295 52.8417 49.4088 53.3265 50.8672C51.2163 53.388 49.8903 56.3047 49.4341 58.2213C48.5929 61.763 49.2487 63.3672 50.4892 63.7422C51.0451 63.9088 51.8436 63.5338 52.4423 63.1588C53.1837 62.8047 54.082 62.2003 54.9091 61.3047C56.3349 59.763 57.7036 57.6172 57.6323 54.7213C57.5895 53.388 57.3472 52.0755 57.0192 50.8255C58.8157 49.7422 61.1396 49.1172 64.0911 49.638C70.4358 50.7213 71.6905 56.513 71.4483 58.9297C71.2059 61.3465 69.8799 62.6797 69.4378 63.0963C68.9958 63.4922 68.8532 63.6382 68.896 63.9297C68.953 64.3674 69.1526 64.3463 69.5376 64.2632C70.0651 64.138 72.8739 62.284 72.988 57.8259C73.1591 52.0959 69.4378 45.8459 62.8364 45.9082ZM13.9036 70.0124C11.8077 73.3665 8.85634 74.6374 7.60165 73.554C6.24716 72.4082 6.77455 67.4707 9.35536 63.9082C10.9237 61.7415 12.9626 59.7415 14.3028 58.5124C14.6022 58.2415 15.0585 57.8459 15.6003 57.3665C15.6858 57.2834 15.7429 57.2415 15.7429 57.2415C15.8427 57.1582 15.9567 57.054 16.0708 56.9499C17.0261 62.0332 16.1136 66.4915 13.9036 70.0124ZM29.2308 54.7832C28.5036 57.3874 26.9638 64.0749 26.037 63.6999C25.2384 63.3874 24.7538 58.3249 25.88 53.3249C26.4503 50.8038 27.6623 47.804 28.3751 46.6372C29.5302 44.7622 30.7847 44.1372 31.0985 44.908C31.4692 45.9082 29.687 53.1582 29.2308 54.7832ZM41.8774 63.6165C41.5638 63.8459 41.2786 64.0124 41.1503 63.8876C41.0505 63.8043 41.2785 63.4918 41.2785 63.4918C41.2785 63.4918 42.8611 61.0126 43.4884 59.8668C43.8449 59.2003 44.2726 58.4295 44.7289 57.5543V57.8042C44.729 60.804 42.7614 62.804 41.8774 63.6165ZM51.6296 60.3665C51.4015 60.1165 51.4302 59.3457 52.1999 56.929C52.4995 55.9707 53.1837 54.3665 54.3671 52.8457C54.5097 53.4707 54.5954 54.0747 54.581 54.6374C54.5669 58.3874 52.7419 59.7832 51.6296 60.3665Z" fill="#CF649A"/>
</svg>
