<svg width="73" height="80" viewBox="0 0 73 80" fill="none" xmlns="http://www.w3.org/2000/svg">
<path d="M0 40V0H73V80H0" fill="#007ACC"/>
<path d="M16.0054 40.14V43.4H25.4954V73H32.2296V43.4H41.7196V40.2C41.7196 38.4 41.7196 36.94 41.6466 36.9C41.6466 36.84 35.8614 36.82 28.8351 36.82L16.0601 36.88V40.16L16.0054 40.14ZM58.6556 36.8C60.5171 37.28 61.9406 38.2 63.2181 39.66C63.8934 40.46 64.8971 41.86 64.9701 42.22C64.9701 42.34 61.8129 44.68 59.8966 45.98C59.8236 46.04 59.5316 45.7 59.2396 45.18C58.2906 43.7 57.3234 43.06 55.8086 42.94C53.6186 42.78 52.1586 44.04 52.1586 46.14C52.1586 46.78 52.2681 47.14 52.4871 47.66C52.9799 48.76 53.8924 49.42 56.7211 50.78C61.9406 53.24 64.2036 54.86 65.5724 57.18C67.1236 59.78 67.4704 63.86 66.4301 66.92C65.2621 70.26 62.4151 72.52 58.3454 73.26C57.0679 73.5 54.1479 73.46 52.7791 73.2C49.8591 72.6 47.0669 71 45.3514 68.94C44.6761 68.14 43.3804 66 43.4534 65.86L44.1469 65.38L46.8844 63.64L48.9466 62.32L49.4211 63.02C50.0234 64.06 51.3739 65.46 52.1586 65.94C54.5311 67.28 57.7066 67.1 59.2761 65.54C59.9514 64.86 60.2434 64.14 60.2434 63.14C60.2434 62.22 60.1156 61.8 59.6959 61.1C59.1119 60.22 57.9439 59.5 54.6589 57.9C50.8811 56.14 49.2751 55.02 47.7786 53.3C46.9209 52.26 46.1361 50.64 45.7711 49.3C45.4974 48.14 45.4061 45.3 45.6616 44.16C46.4464 40.16 49.2021 37.36 53.1441 36.56C54.4216 36.28 57.4329 36.4 58.6921 36.76L58.6556 36.8Z" fill="white"/>
</svg>
