<svg width="60" height="60" viewBox="0 0 60 60" fill="none" xmlns="http://www.w3.org/2000/svg">
<path d="M52.5 12.1875H7.5C7.25136 12.1875 7.0129 12.2863 6.83709 12.4621C6.66127 12.6379 6.5625 12.8764 6.5625 13.125V45C6.5625 45.7459 6.85882 46.4613 7.38626 46.9887C7.91371 47.5162 8.62908 47.8125 9.375 47.8125H50.625C51.3709 47.8125 52.0863 47.5162 52.6137 46.9887C53.1412 46.4613 53.4375 45.7459 53.4375 45V13.125C53.4375 12.8764 53.3387 12.6379 53.1629 12.4621C52.9871 12.2863 52.7486 12.1875 52.5 12.1875ZM50.0906 14.0625L30 32.4773L9.90937 14.0625H50.0906ZM50.625 45.9375H9.375C9.12636 45.9375 8.8879 45.8387 8.71209 45.6629C8.53627 45.4871 8.4375 45.2486 8.4375 45V15.2555L29.3672 34.4531C29.54 34.6112 29.7658 34.6989 30 34.6989C30.2342 34.6989 30.46 34.6112 30.6328 34.4531L51.5625 15.2555V45C51.5625 45.2486 51.4637 45.4871 51.2879 45.6629C51.1121 45.8387 50.8736 45.9375 50.625 45.9375Z" fill="#DFF8EB"/>
</svg>
