<svg width="60" height="60" viewBox="0 0 60 60" fill="none" xmlns="http://www.w3.org/2000/svg">
<path d="M47.7984 17.8501C48.4104 16.0771 48.6334 14.1931 48.4523 12.3263C48.2711 10.4594 47.69 8.65349 46.7484 7.0313C46.6662 6.88893 46.548 6.77067 46.4057 6.68839C46.2634 6.60612 46.1019 6.56272 45.9375 6.56255C43.8192 6.55654 41.7311 7.06536 39.8531 8.04523C37.975 9.02509 36.3631 10.4467 35.1562 12.1876H28.5938C27.3869 10.4467 25.775 9.02509 23.8969 8.04523C22.0189 7.06536 19.9308 6.55654 17.8125 6.56255C17.6481 6.56272 17.4866 6.60612 17.3443 6.68839C17.202 6.77067 17.0838 6.88893 17.0016 7.0313C16.06 8.65349 15.4789 10.4594 15.2977 12.3263C15.1166 14.1931 15.3395 16.0771 15.9516 17.8501C14.7366 19.8112 14.0832 22.0682 14.0625 24.3751V26.2501C14.0662 29.4812 15.3515 32.579 17.6362 34.8638C19.921 37.1486 23.0188 38.4338 26.25 38.4376H26.5805C25.6001 39.2276 24.8091 40.227 24.2652 41.3626C23.7214 42.4981 23.4386 43.741 23.4375 45.0001V47.8126H16.875C15.1345 47.8126 13.4653 47.1212 12.2346 45.8904C11.0039 44.6597 10.3125 42.9905 10.3125 41.2501C10.3125 39.0123 9.42355 36.8662 7.84121 35.2838C6.25888 33.7015 4.11276 32.8126 1.875 32.8126C1.62636 32.8126 1.3879 32.9113 1.21209 33.0871C1.03627 33.263 0.9375 33.5014 0.9375 33.7501C0.9375 33.9987 1.03627 34.2372 1.21209 34.413C1.3879 34.5888 1.62636 34.6876 1.875 34.6876C3.61548 34.6876 5.28468 35.379 6.51539 36.6097C7.7461 37.8404 8.4375 39.5096 8.4375 41.2501C8.4375 43.4878 9.32645 45.6339 10.9088 47.2163C12.4911 48.7986 14.6372 49.6876 16.875 49.6876H23.4375V54.3751C23.4375 54.6237 23.5363 54.8622 23.7121 55.038C23.8879 55.2138 24.1264 55.3126 24.375 55.3126C24.6236 55.3126 24.8621 55.2138 25.0379 55.038C25.2137 54.8622 25.3125 54.6237 25.3125 54.3751V45.0001C25.3125 43.2596 26.0039 41.5904 27.2346 40.3597C28.4653 39.129 30.1345 38.4376 31.875 38.4376C33.6155 38.4376 35.2847 39.129 36.5154 40.3597C37.7461 41.5904 38.4375 43.2596 38.4375 45.0001V54.3751C38.4375 54.6237 38.5363 54.8622 38.7121 55.038C38.8879 55.2138 39.1264 55.3126 39.375 55.3126C39.6236 55.3126 39.8621 55.2138 40.0379 55.038C40.2137 54.8622 40.3125 54.6237 40.3125 54.3751V45.0001C40.3114 43.741 40.0286 42.4981 39.4848 41.3626C38.9409 40.227 38.1499 39.2276 37.1695 38.4376H37.5C40.7312 38.4338 43.829 37.1486 46.1138 34.8638C48.3985 32.579 49.6838 29.4812 49.6875 26.2501V24.3751C49.6668 22.0682 49.0134 19.8112 47.7984 17.8501ZM47.8125 26.2501C47.8094 28.9841 46.7219 31.6054 44.7886 33.5387C42.8553 35.472 40.2341 36.5595 37.5 36.5626H26.25C23.5159 36.5595 20.8947 35.472 18.9614 33.5387C17.0281 31.6054 15.9406 28.9841 15.9375 26.2501V24.3751C15.9618 22.2965 16.5896 20.2698 17.7445 18.5415C17.8398 18.4143 17.9012 18.2649 17.9229 18.1075C17.9447 17.9501 17.926 17.7897 17.8687 17.6415C17.2957 16.1621 17.0432 14.5779 17.1281 12.9937C17.2129 11.4095 17.6332 9.86132 18.3609 8.45162C20.1564 8.53494 21.9055 9.04907 23.4606 9.95058C25.0156 10.8521 26.3308 12.1145 27.2953 13.6313C27.3802 13.7637 27.4971 13.8725 27.6351 13.9479C27.7731 14.0233 27.9279 14.0627 28.0852 14.0626H35.6648C35.8221 14.0627 35.9769 14.0233 36.1149 13.9479C36.2529 13.8725 36.3698 13.7637 36.4547 13.6313C37.4192 12.1145 38.7344 10.8521 40.2894 9.95058C41.8445 9.04907 43.5936 8.53494 45.3891 8.45162C46.1168 9.86132 46.5371 11.4095 46.6219 12.9937C46.7068 14.5779 46.4543 16.1621 45.8812 17.6415C45.8244 17.7894 45.806 17.9493 45.8277 18.1063C45.8494 18.2633 45.9106 18.4122 46.0055 18.5391C47.1597 20.2686 47.7875 22.2959 47.8125 24.3751V26.2501Z" fill="#DFF8EB"/>
</svg>
