<svg width="60" height="60" viewBox="0 0 60 60" fill="none" xmlns="http://www.w3.org/2000/svg">
<path d="M50.625 6.5625H9.375C8.62908 6.5625 7.91371 6.85882 7.38626 7.38626C6.85882 7.91371 6.5625 8.62908 6.5625 9.375V50.625C6.5625 51.3709 6.85882 52.0863 7.38626 52.6137C7.91371 53.1412 8.62908 53.4375 9.375 53.4375H50.625C51.3709 53.4375 52.0863 53.1412 52.6137 52.6137C53.1412 52.0863 53.4375 51.3709 53.4375 50.625V9.375C53.4375 8.62908 53.1412 7.91371 52.6137 7.38626C52.0863 6.85882 51.3709 6.5625 50.625 6.5625ZM51.5625 50.625C51.5625 50.8736 51.4637 51.1121 51.2879 51.2879C51.1121 51.4637 50.8736 51.5625 50.625 51.5625H9.375C9.12636 51.5625 8.8879 51.4637 8.71209 51.2879C8.53627 51.1121 8.4375 50.8736 8.4375 50.625V9.375C8.4375 9.12636 8.53627 8.8879 8.71209 8.71209C8.8879 8.53627 9.12636 8.4375 9.375 8.4375H50.625C50.8736 8.4375 51.1121 8.53627 51.2879 8.71209C51.4637 8.8879 51.5625 9.12636 51.5625 9.375V50.625ZM21.5625 26.25V41.25C21.5625 41.4986 21.4637 41.7371 21.2879 41.9129C21.1121 42.0887 20.8736 42.1875 20.625 42.1875C20.3764 42.1875 20.1379 42.0887 19.9621 41.9129C19.7863 41.7371 19.6875 41.4986 19.6875 41.25V26.25C19.6875 26.0014 19.7863 25.7629 19.9621 25.5871C20.1379 25.4113 20.3764 25.3125 20.625 25.3125C20.8736 25.3125 21.1121 25.4113 21.2879 25.5871C21.4637 25.7629 21.5625 26.0014 21.5625 26.25ZM42.1875 32.8125V41.25C42.1875 41.4986 42.0887 41.7371 41.9129 41.9129C41.7371 42.0887 41.4986 42.1875 41.25 42.1875C41.0014 42.1875 40.7629 42.0887 40.5871 41.9129C40.4113 41.7371 40.3125 41.4986 40.3125 41.25V32.8125C40.3125 31.3207 39.7199 29.8899 38.665 28.835C37.6101 27.7801 36.1793 27.1875 34.6875 27.1875C33.1957 27.1875 31.7649 27.7801 30.71 28.835C29.6551 29.8899 29.0625 31.3207 29.0625 32.8125V41.25C29.0625 41.4986 28.9637 41.7371 28.7879 41.9129C28.6121 42.0887 28.3736 42.1875 28.125 42.1875C27.8764 42.1875 27.6379 42.0887 27.4621 41.9129C27.2863 41.7371 27.1875 41.4986 27.1875 41.25V26.25C27.1875 26.0014 27.2863 25.7629 27.4621 25.5871C27.6379 25.4113 27.8764 25.3125 28.125 25.3125C28.3736 25.3125 28.6121 25.4113 28.7879 25.5871C28.9637 25.7629 29.0625 26.0014 29.0625 26.25V27.8602C30.0697 26.7181 31.4006 25.9097 32.8783 25.5424C34.356 25.1751 35.9106 25.2663 37.3352 25.8038C38.7599 26.3414 39.9871 27.2998 40.8539 28.5518C41.7206 29.8037 42.1858 31.2898 42.1875 32.8125ZM22.5 19.6875C22.5 20.0583 22.39 20.4209 22.184 20.7292C21.978 21.0375 21.6851 21.2779 21.3425 21.4198C20.9999 21.5617 20.6229 21.5988 20.2592 21.5265C19.8955 21.4541 19.5614 21.2755 19.2992 21.0133C19.037 20.7511 18.8584 20.417 18.786 20.0533C18.7137 19.6896 18.7508 19.3126 18.8927 18.97C19.0346 18.6274 19.275 18.3345 19.5833 18.1285C19.8916 17.9225 20.2542 17.8125 20.625 17.8125C21.1223 17.8125 21.5992 18.01 21.9508 18.3617C22.3025 18.7133 22.5 19.1902 22.5 19.6875Z" fill="#DFF8EB"/>
</svg>
