<svg width="48" height="48" viewBox="0 0 48 48" fill="none" xmlns="http://www.w3.org/2000/svg">
<path d="M37.8769 28.9008L30.1963 25.0608C30.0452 24.9855 29.8768 24.9514 29.7082 24.9619C29.5397 24.9724 29.3769 25.0272 29.2362 25.1208L25.2423 27.7848C23.0469 26.732 21.2764 24.9617 20.2236 22.7664L22.8878 18.7728C22.9813 18.6322 23.0362 18.4694 23.0467 18.3009C23.0572 18.1323 23.0231 17.964 22.9478 17.8128L19.1075 10.1328C19.0278 9.97249 18.9049 9.83765 18.7527 9.7435C18.6004 9.64935 18.4248 9.59965 18.2458 9.6C15.9542 9.6 13.7564 10.5103 12.136 12.1306C10.5155 13.7509 9.60518 15.9485 9.60518 18.24C9.6109 23.585 11.7369 28.7095 15.5167 32.489C19.2964 36.2684 24.4213 38.3943 29.7667 38.4C32.0583 38.4 34.2561 37.4897 35.8765 35.8694C37.497 34.2491 38.4073 32.0515 38.4073 29.76C38.4075 29.5816 38.3579 29.4068 38.2642 29.255C38.1705 29.1033 38.0364 28.9806 37.8769 28.9008ZM29.7667 36.48C24.9303 36.4749 20.2935 34.5516 16.8737 31.132C13.4539 27.7124 11.5304 23.076 11.5253 18.24C11.525 16.5581 12.1555 14.9372 13.2922 13.6975C14.4289 12.4578 15.9892 11.6894 17.665 11.544L20.9772 18.1704L18.337 22.14C18.249 22.271 18.1947 22.4216 18.1788 22.5786C18.1629 22.7356 18.1859 22.894 18.2458 23.04C19.5214 26.0723 21.9338 28.4845 24.9663 29.76C25.1124 29.8207 25.2713 29.8443 25.4287 29.8289C25.5862 29.8134 25.7373 29.7592 25.8688 29.6712L29.8387 27.0312L36.4656 30.3432C36.3196 32.0188 35.5505 33.5787 34.3103 34.7149C33.07 35.8511 31.4488 36.4809 29.7667 36.48ZM24.0063 4.14638e-07C19.8277 -0.000776139 15.7214 1.08924 12.0935 3.16222C8.46553 5.2352 5.44165 8.21932 3.32096 11.8194C1.20026 15.4195 0.0562271 19.5108 0.00202024 23.6887C-0.0521867 27.8665 0.98531 31.9861 3.01189 35.64L0.155672 44.2056C-0.013568 44.713 -0.0381284 45.2576 0.0847434 45.7782C0.207615 46.2988 0.473064 46.7749 0.851337 47.1532C1.22961 47.5314 1.70576 47.7969 2.22642 47.9197C2.74707 48.0426 3.29166 48.018 3.79915 47.8488L12.3654 44.9928C15.5697 46.7682 19.138 47.7866 22.7968 47.9699C26.4556 48.1533 30.1078 47.4967 33.4737 46.0506C36.8395 44.6045 39.8296 42.4071 42.2149 39.6269C44.6002 36.8467 46.3174 33.5574 47.235 30.0111C48.1525 26.4647 48.246 22.7554 47.5084 19.1673C46.7707 15.5793 45.2214 12.2076 42.9793 9.31077C40.7371 6.41391 37.8615 4.06871 34.5728 2.45483C31.2841 0.840951 27.6696 0.00122888 24.0063 4.14638e-07ZM24.0063 46.08C20.1239 46.0812 16.3098 45.0588 12.9486 43.116C12.8026 43.0319 12.6371 42.9873 12.4686 42.9864C12.3649 42.9863 12.2619 43.0034 12.1638 43.0368L3.1919 46.0272C3.02274 46.0836 2.84121 46.0918 2.66766 46.0508C2.4941 46.0099 2.33539 45.9214 2.2093 45.7953C2.08321 45.6692 1.99472 45.5105 1.95377 45.337C1.91281 45.1635 1.921 44.9819 1.97741 44.8128L4.96803 35.8416C5.01117 35.7126 5.02642 35.576 5.01276 35.4407C4.99911 35.3054 4.95686 35.1745 4.88883 35.0568C2.45433 30.849 1.47662 25.9554 2.10738 21.1353C2.73813 16.3152 4.94208 11.8379 8.37733 8.39806C11.8126 4.95824 16.2871 2.74816 21.1067 2.11067C25.9263 1.47319 30.8216 2.44395 35.0331 4.87234C39.2447 7.30074 42.537 11.051 44.3995 15.5414C46.2619 20.0318 46.5903 25.0112 45.3336 29.7072C44.077 34.4033 41.3056 38.5534 37.4495 41.5137C33.5933 44.474 28.8678 46.0791 24.0063 46.08Z" fill="#DFF8EB"/>
</svg>
