<svg width="56" height="80" viewBox="0 0 56 80" fill="none" xmlns="http://www.w3.org/2000/svg">
<path d="M27.6975 39.9787C27.6975 32.6357 33.8909 26.6525 41.562 26.6525C49.2016 26.6525 55.4264 32.6054 55.4264 39.9787C55.4264 47.3217 49.233 53.3049 41.562 53.3049C33.9224 53.3049 27.6975 47.3217 27.6975 39.9787Z" fill="#1ABCFE"/>
<path d="M0 66.6009C0 59.2579 6.19342 53.2747 13.8645 53.2747H27.7289V66.6009C27.7289 73.9439 21.5355 79.9271 13.8645 79.9271C6.19342 79.9271 0 73.9741 0 66.6009Z" fill="#0ACF83"/>
<path d="M27.6975 0.0302182V26.6524H41.562C49.2016 26.6524 55.4264 20.6994 55.4264 13.3262C55.4264 5.9832 49.233 0 41.562 0H27.6975V0.0302182Z" fill="#FF7262"/>
<path d="M0 13.3565C0 20.6995 6.19342 26.6827 13.8645 26.6827H27.7289V0.0302734H13.8645C6.19342 0.0302734 0 5.98325 0 13.3565Z" fill="#F24E1E"/>
<path d="M0 39.9787C0 47.3217 6.19342 53.3049 13.8645 53.3049H27.7289V26.6525H13.8645C6.19342 26.6525 0 32.6357 0 39.9787Z" fill="#A259FF"/>
</svg>
