<svg width="73" height="80" viewBox="0 0 73 80" fill="none" xmlns="http://www.w3.org/2000/svg">
<path d="M36.5001 0C16.3443 0 0 18.3617 0 41.0126C0 59.1333 10.4584 74.5065 24.9611 79.9296C26.7852 80.3091 27.455 79.0399 27.455 77.9565C27.455 76.9787 27.421 73.7477 27.4055 70.3208C17.2509 72.8017 15.1082 65.4818 15.1082 65.4818C13.4478 60.7413 11.0555 59.481 11.0555 59.481C7.74403 56.9354 11.3052 56.9875 11.3052 56.9875C14.9705 57.277 16.9005 61.2141 16.9005 61.2141C20.1559 67.4841 25.4392 65.6713 27.522 64.6236C27.8495 61.9725 28.7956 60.1636 29.8393 59.1394C21.7323 58.1021 13.2097 54.5854 13.2097 38.8707C13.2097 34.3932 14.6356 30.7344 16.9706 27.8624C16.5916 26.8292 15.3423 22.658 17.3242 17.0088C17.3242 17.0088 20.3892 15.9065 27.3643 21.2128C30.2756 20.3038 33.3982 19.8483 36.5001 19.8329C39.6021 19.8483 42.727 20.3038 45.644 21.2128C52.6108 15.9065 55.6716 17.0088 55.6716 17.0088C57.6582 22.658 56.4084 26.8292 56.0294 27.8624C58.3696 30.7344 59.7858 34.3929 59.7858 38.8707C59.7858 54.6227 51.2471 58.0915 43.1194 59.1066C44.4285 60.3794 45.5951 62.8754 45.5951 66.7015C45.5951 72.1889 45.5527 76.6056 45.5527 77.9565C45.5527 79.0479 46.2097 80.3268 48.0601 79.9241C62.5548 74.4949 73 59.1272 73 41.0126C73 18.3617 56.658 0 36.5001 0Z" fill="#A6A6A6"/>
<path d="M13.6176 58.3477C13.5378 58.551 13.2532 58.6121 12.9946 58.4727C12.7308 58.339 12.5825 58.0615 12.6681 57.8572C12.7465 57.6477 13.0311 57.5893 13.2943 57.73C13.5586 57.8633 13.7092 58.1434 13.6176 58.3477ZM15.4061 60.1453C15.2327 60.3265 14.8937 60.2424 14.6636 59.9561C14.4258 59.6706 14.3813 59.2889 14.5572 59.1049C14.736 58.924 15.0648 59.0085 15.3032 59.2944C15.541 59.5832 15.5872 59.9626 15.4058 60.1457M16.6332 62.4454C16.4102 62.6198 16.0457 62.4563 15.8207 62.092C15.598 61.7281 15.598 61.2912 15.8256 61.1161C16.0514 60.9411 16.4102 61.0985 16.6383 61.4599C16.8607 61.8302 16.8607 62.2671 16.6329 62.4457M18.7079 65.1094C18.5086 65.3568 18.0843 65.2906 17.7735 64.9527C17.4558 64.6224 17.3671 64.1537 17.567 63.9061C17.7686 63.6581 18.1955 63.7278 18.5086 64.0628C18.8243 64.3924 18.9204 64.8646 18.7079 65.1094ZM21.3896 66.0089C21.302 66.3295 20.8931 66.4753 20.4813 66.3391C20.0701 66.1987 19.801 65.8229 19.8839 65.4988C19.9695 65.1759 20.3801 65.024 20.795 65.1698C21.2056 65.3096 21.4751 65.6825 21.3896 66.0089ZM24.4419 66.3902C24.4521 66.7281 24.1028 67.0083 23.6705 67.0144C23.2357 67.025 22.8841 66.7516 22.8795 66.4194C22.8795 66.0783 23.2208 65.8007 23.6554 65.7927C24.0877 65.7831 24.4419 66.0545 24.4419 66.3902ZM27.44 66.2607C27.4919 66.5903 27.1913 66.9289 26.7622 67.0189C26.3402 67.1056 25.9495 66.9023 25.8956 66.5756C25.8431 66.2376 26.1494 65.8994 26.5706 65.8117C27.0006 65.7275 27.3853 65.9257 27.44 66.2607Z" fill="#A6A6A6"/>
</svg>
