<svg width="25" height="25" viewBox="0 0 25 25" fill="none" xmlns="http://www.w3.org/2000/svg">
<path d="M20.5004 6.00039H13.0004V0.500394C13.0005 0.401446 12.9712 0.3047 12.9163 0.222403C12.8613 0.140106 12.7832 0.0759587 12.6918 0.0380825C12.6004 0.000206247 12.4998 -0.00969606 12.4027 0.00962914C12.3057 0.0289543 12.2166 0.0766381 12.1466 0.146644L0.146643 12.1466C0.100155 12.1931 0.0632757 12.2482 0.0381136 12.3089C0.0129514 12.3696 0 12.4347 0 12.5004C0 12.5661 0.0129514 12.6312 0.0381136 12.6919C0.0632757 12.7526 0.100155 12.8077 0.146643 12.8541L12.1466 24.8541C12.2166 24.9241 12.3057 24.9718 12.4027 24.9912C12.4998 25.0105 12.6004 25.0006 12.6918 24.9627C12.7832 24.9248 12.8613 24.8607 12.9163 24.7784C12.9712 24.6961 13.0005 24.5993 13.0004 24.5004V19.0004H20.5004C20.633 19.0004 20.7602 18.9477 20.8539 18.8539C20.9477 18.7602 21.0004 18.633 21.0004 18.5004V6.50039C21.0004 6.36779 20.9477 6.24061 20.8539 6.14684C20.7602 6.05307 20.633 6.00039 20.5004 6.00039ZM20.0004 18.0004H12.5004C12.3678 18.0004 12.2406 18.0531 12.1468 18.1468C12.0531 18.2406 12.0004 18.3678 12.0004 18.5004V23.2929L1.20789 12.5004L12.0004 1.70789V6.50039C12.0004 6.633 12.0531 6.76018 12.1468 6.85395C12.2406 6.94772 12.3678 7.00039 12.5004 7.00039H20.0004V18.0004ZM25.0004 6.50039V18.5004C25.0004 18.633 24.9477 18.7602 24.8539 18.8539C24.7602 18.9477 24.633 19.0004 24.5004 19.0004C24.3678 19.0004 24.2406 18.9477 24.1468 18.8539C24.0531 18.7602 24.0004 18.633 24.0004 18.5004V6.50039C24.0004 6.36779 24.0531 6.24061 24.1468 6.14684C24.2406 6.05307 24.3678 6.00039 24.5004 6.00039C24.633 6.00039 24.7602 6.05307 24.8539 6.14684C24.9477 6.24061 25.0004 6.36779 25.0004 6.50039Z" fill="#17A7CA"/>
</svg>
