<svg width="32" height="32" viewBox="0 0 32 32" fill="none" xmlns="http://www.w3.org/2000/svg">
<path d="M25.4925 9.52C25.8189 8.57442 25.9378 7.56963 25.8412 6.57398C25.7446 5.57833 25.4346 4.61516 24.9325 3.75C24.8887 3.67406 24.8256 3.61099 24.7497 3.56711C24.6738 3.52323 24.5877 3.50009 24.5 3.5C23.3702 3.49679 22.2566 3.76816 21.255 4.29076C20.2533 4.81335 19.3937 5.57152 18.75 6.5H15.25C14.6063 5.57152 13.7467 4.81335 12.745 4.29076C11.7434 3.76816 10.6298 3.49679 9.5 3.5C9.41232 3.50009 9.3262 3.52323 9.25029 3.56711C9.17438 3.61099 9.11134 3.67406 9.0675 3.75C8.56535 4.61516 8.25542 5.57833 8.15879 6.57398C8.06216 7.56963 8.18109 8.57442 8.5075 9.52C7.85953 10.5659 7.51104 11.7697 7.5 13V14C7.50199 15.7233 8.18744 17.3754 9.406 18.594C10.6246 19.8126 12.2767 20.498 14 20.5H14.1763C13.6534 20.9214 13.2315 21.4544 12.9415 22.06C12.6514 22.6656 12.5006 23.3285 12.5 24V25.5H9C8.07174 25.5 7.1815 25.1313 6.52513 24.4749C5.86875 23.8185 5.5 22.9283 5.5 22C5.5 20.8065 5.02589 19.6619 4.18198 18.818C3.33807 17.9741 2.19347 17.5 1 17.5C0.867392 17.5 0.740215 17.5527 0.646447 17.6464C0.552678 17.7402 0.5 17.8674 0.5 18C0.5 18.1326 0.552678 18.2598 0.646447 18.3536C0.740215 18.4473 0.867392 18.5 1 18.5C1.92826 18.5 2.8185 18.8687 3.47487 19.5251C4.13125 20.1815 4.5 21.0717 4.5 22C4.5 23.1935 4.97411 24.3381 5.81802 25.182C6.66193 26.0259 7.80653 26.5 9 26.5H12.5V29C12.5 29.1326 12.5527 29.2598 12.6464 29.3536C12.7402 29.4473 12.8674 29.5 13 29.5C13.1326 29.5 13.2598 29.4473 13.3536 29.3536C13.4473 29.2598 13.5 29.1326 13.5 29V24C13.5 23.0717 13.8687 22.1815 14.5251 21.5251C15.1815 20.8687 16.0717 20.5 17 20.5C17.9283 20.5 18.8185 20.8687 19.4749 21.5251C20.1313 22.1815 20.5 23.0717 20.5 24V29C20.5 29.1326 20.5527 29.2598 20.6464 29.3536C20.7402 29.4473 20.8674 29.5 21 29.5C21.1326 29.5 21.2598 29.4473 21.3536 29.3536C21.4473 29.2598 21.5 29.1326 21.5 29V24C21.4994 23.3285 21.3486 22.6656 21.0585 22.06C20.7685 21.4544 20.3466 20.9214 19.8237 20.5H20C21.7233 20.498 23.3754 19.8126 24.594 18.594C25.8126 17.3754 26.498 15.7233 26.5 14V13C26.489 11.7697 26.1405 10.5659 25.4925 9.52ZM25.5 14C25.4983 15.4582 24.9184 16.8562 23.8873 17.8873C22.8562 18.9183 21.4582 19.4983 20 19.5H14C12.5418 19.4983 11.1438 18.9183 10.1127 17.8873C9.08165 16.8562 8.50165 15.4582 8.5 14V13C8.51295 11.8914 8.84778 10.8105 9.46375 9.88875C9.51457 9.82091 9.54732 9.74127 9.55891 9.65731C9.57049 9.57334 9.56055 9.48781 9.53 9.40875C9.22437 8.61975 9.08973 7.77485 9.13498 6.92994C9.18023 6.08502 9.40435 5.25934 9.7925 4.5075C10.7501 4.55194 11.683 4.82614 12.5123 5.30695C13.3416 5.78776 14.0431 6.46106 14.5575 7.27C14.6028 7.34059 14.6651 7.39865 14.7387 7.43885C14.8123 7.47904 14.8949 7.50007 14.9788 7.5H19.0212C19.1051 7.50007 19.1877 7.47904 19.2613 7.43885C19.3349 7.39865 19.3972 7.34059 19.4425 7.27C19.9569 6.46106 20.6584 5.78776 21.4877 5.30695C22.317 4.82614 23.2499 4.55194 24.2075 4.5075C24.5957 5.25934 24.8198 6.08502 24.865 6.92994C24.9103 7.77485 24.7756 8.61975 24.47 9.40875C24.4397 9.48764 24.4299 9.57294 24.4414 9.65666C24.453 9.74038 24.4856 9.8198 24.5362 9.8875C25.1519 10.8099 25.4866 11.8911 25.5 13V14Z" fill="#161616"/>
</svg>
