<svg width="29" height="29" viewBox="0 0 29 29" fill="none" xmlns="http://www.w3.org/2000/svg">
<path d="M23.8616 17.3283C23.8035 17.2701 23.7306 17.2287 23.6507 17.2088C23.5709 17.1888 23.4871 17.191 23.4085 17.215C21.602 17.761 19.6812 17.8067 17.8508 17.3472C16.0204 16.8877 14.3489 15.9402 13.0145 14.6056C11.6801 13.2711 10.7328 11.5996 10.2734 9.76915C9.81403 7.9387 9.85987 6.01792 10.406 4.21147C10.4303 4.13274 10.4326 4.04889 10.4127 3.96894C10.3929 3.88899 10.3516 3.81597 10.2934 3.75772C10.2351 3.69947 10.1621 3.6582 10.0822 3.63835C10.0022 3.6185 9.91835 3.62082 9.83963 3.64506C7.54247 4.34989 5.52626 5.76155 4.07814 7.67901C2.44203 9.86049 1.64771 12.5589 1.84101 15.2789C2.03432 17.9989 3.20227 20.5579 5.13045 22.4861C7.05862 24.4143 9.61761 25.5822 12.3376 25.7755C15.0576 25.9688 17.756 25.1745 19.9375 23.5384C21.8543 22.0896 23.2652 20.073 23.9692 17.7758C23.9929 17.6984 23.9953 17.616 23.9764 17.5374C23.9575 17.4587 23.9178 17.3865 23.8616 17.3283ZM19.396 22.819C17.3892 24.3293 14.9044 25.0641 12.399 24.8881C9.8935 24.7121 7.53586 23.6372 5.75986 21.8612C3.98386 20.0852 2.90898 17.7276 2.73298 15.2221C2.55699 12.7166 3.29173 10.2319 4.80201 8.22503C5.96492 6.6872 7.52755 5.49799 9.31966 4.78694C8.90945 6.64666 8.97427 8.57975 9.50816 10.4078C10.042 12.2359 11.0278 13.9 12.3744 15.2466C13.7211 16.5933 15.3852 17.579 17.2132 18.1129C19.0413 18.6468 20.9744 18.7116 22.8341 18.3014C22.1231 20.0935 20.9339 21.6561 19.396 22.819Z" fill="#DFF8EB"/>
</svg>
