<svg width="32" height="32" viewBox="0 0 32 32" fill="none" xmlns="http://www.w3.org/2000/svg">
<path d="M31.5646 5.37135L16.2039 0.0345171C16.0721 -0.0115057 15.9294 -0.0115057 15.7975 0.0345171L0.43682 5.37135C0.309657 5.41573 0.19908 5.50061 0.120701 5.61403C0.0423225 5.72744 0.000101698 5.86365 0 6.00343V19.3455C0 19.5224 0.0674315 19.6921 0.18746 19.8172C0.307489 19.9423 0.470283 20.0126 0.640029 20.0126C0.809775 20.0126 0.972569 19.9423 1.0926 19.8172C1.21263 19.6921 1.28006 19.5224 1.28006 19.3455V6.92904L8.30117 9.36897C7.43428 10.5826 6.84273 11.9853 6.57102 13.4717C6.29931 14.958 6.35451 16.4892 6.73248 17.95C7.11044 19.4109 7.80133 20.7634 8.75316 21.9058C9.70498 23.0482 10.893 23.9508 12.2278 24.5456C8.89 25.5029 5.98747 27.736 3.94418 30.9915C3.85955 31.1395 3.83318 31.316 3.87061 31.4839C3.90803 31.6518 4.00634 31.798 4.14494 31.892C4.28353 31.986 4.45166 32.0205 4.61408 31.9882C4.7765 31.9558 4.92062 31.8592 5.01623 31.7186C7.54754 27.671 11.5525 25.3494 16.0007 25.3494C20.4489 25.3494 24.4539 27.671 26.9852 31.7169C27.0808 31.8576 27.2249 31.9542 27.3874 31.9865C27.5498 32.0188 27.7179 31.9844 27.8565 31.8904C27.9951 31.7964 28.0934 31.6501 28.1308 31.4822C28.1683 31.3143 28.1419 31.1379 28.0573 30.9898C26.022 27.7343 23.1114 25.5012 19.7737 24.5439C21.1085 23.9491 22.2965 23.0466 23.2483 21.9042C24.2001 20.7617 24.891 19.4092 25.269 17.9484C25.6469 16.4875 25.7021 14.9563 25.4304 13.47C25.1587 11.9837 24.5672 10.5809 23.7003 9.3673L31.5646 6.63384C31.6915 6.58921 31.8018 6.50421 31.8799 6.39082C31.958 6.27742 32 6.14135 32 6.00176C32 5.86217 31.958 5.7261 31.8799 5.61271C31.8018 5.49931 31.6915 5.41431 31.5646 5.36968V5.37135ZM24.3211 15.3429C24.3211 16.7345 23.9999 18.1056 23.3845 19.3406C22.7691 20.5755 21.8776 21.638 20.7854 22.4382C19.6931 23.2385 18.4321 23.753 17.1089 23.9383C15.7856 24.1236 14.4391 23.9744 13.1828 23.5031C11.9266 23.0318 10.7977 22.2523 9.89132 21.2305C8.98497 20.2087 8.32784 18.9746 7.97543 17.6323C7.62302 16.2901 7.58568 14.8792 7.86656 13.5187C8.14744 12.1583 8.7383 10.8883 9.58923 9.81593L15.7975 11.9723C15.9293 12.019 16.0722 12.019 16.2039 11.9723L22.4122 9.81593C23.6478 11.3696 24.323 13.3248 24.3211 15.3429ZM16.0007 10.6365L2.66412 6.00343L16.0007 1.37039L29.3373 6.00343L16.0007 10.6365Z" fill="#BEA9FF"/>
</svg>
